<svg width="32" height="32" viewBox="0 0 32 32" fill="none" xmlns="http://www.w3.org/2000/svg">
<path d="M7.21626 12.3727C10.3071 12.3727 12.8127 9.86712 12.8127 6.77632C12.8127 3.68552 10.3071 1.17993 7.21626 1.17993C4.12546 1.17993 1.61987 3.68552 1.61987 6.77632C1.61987 9.86712 4.12546 12.3727 7.21626 12.3727Z" fill="white"/>
<path d="M0.020874 15.5708C0.020874 17.4608 0.391835 19.3316 1.11777 21.0776C1.8405 22.8237 2.90222 24.4099 4.23575 25.7466C5.57249 27.0834 7.15867 28.1419 8.90474 28.8646C10.6508 29.5874 12.5216 29.9615 14.4116 29.9615V15.5708H0.020874Z" fill="white"/>
<path d="M17.6095 29.9615C19.4995 29.9615 21.3703 29.5906 23.1163 28.8646C24.8624 28.1419 26.4486 27.0802 27.7853 25.7466C29.1221 24.4131 30.1806 22.8237 30.9033 21.0776C31.6261 19.3316 32.0002 17.4608 32.0002 15.5708H17.6095V29.9615Z" fill="white"/>
<path d="M24.354 1.53177C24.4724 1.06168 25.1407 1.06168 25.2559 1.53177L25.355 1.93151C25.8827 4.04855 27.5328 5.69868 29.6498 6.22634L30.0496 6.32548C30.5197 6.4438 30.5197 7.11217 30.0496 7.2273L29.6498 7.32643C27.5328 7.85409 25.8827 9.50423 25.355 11.6213L25.2559 12.021C25.1375 12.4911 24.4692 12.4911 24.354 12.021L24.2549 11.6213C23.7272 9.50743 22.0771 7.85409 19.9601 7.32643L19.5603 7.2273C19.0902 7.10897 19.0902 6.44061 19.5603 6.32548L19.9601 6.22634C22.0771 5.69868 23.7272 4.04855 24.2549 1.93151L24.354 1.53177Z" fill="white"/>
</svg>
