<svg width="418" height="376" viewBox="0 0 418 376" fill="none" xmlns="http://www.w3.org/2000/svg">
<path d="M94.3353 145.96C134.638 145.96 167.31 113.288 167.31 72.9854C167.31 32.6825 134.638 0.0104383 94.3353 0.0104383C54.0323 0.0104383 21.3603 32.6825 21.3603 72.9854C21.3603 113.288 54.0323 145.96 94.3353 145.96Z" fill="#8E75F8"/>
<path d="M0.510254 187.66C0.510254 212.305 5.34745 236.7 14.8134 259.468C24.2376 282.236 38.082 302.919 55.4709 320.35C72.9015 337.78 93.5847 351.583 116.353 361.007C139.121 370.432 163.516 375.31 188.16 375.31V187.66H0.510254Z" fill="#8E75F8"/>
<path d="M229.86 375.31C254.505 375.31 278.899 370.473 301.668 361.007C324.436 351.583 345.119 337.739 362.55 320.35C379.98 302.961 393.783 282.236 403.207 259.468C412.631 236.7 417.51 212.305 417.51 187.66H229.86V375.31Z" fill="#8E75F8"/>
<path d="M317.806 4.59742C319.349 -1.53248 328.064 -1.53248 329.565 4.59742L330.858 9.80993C337.738 37.4153 359.256 58.9325 386.861 65.813L392.073 67.1057C398.203 68.6486 398.203 77.3639 392.073 78.8651L386.861 80.1578C359.256 87.0383 337.738 108.556 330.858 136.161L329.565 141.373C328.022 147.503 319.307 147.503 317.806 141.373L316.513 136.161C309.633 108.597 288.115 87.0383 260.51 80.1578L255.297 78.8651C249.168 77.3222 249.168 68.6069 255.297 67.1057L260.51 65.813C288.115 58.9325 309.633 37.4153 316.513 9.80993L317.806 4.59742Z" fill="#8E75F8"/>
</svg>
